# xmcd
#
# Track frame offsets: 
#        150
#        14322
#        29619
#        44911
#        59459
#        73102
#        86971
#        103088
#        117481
#        132179
#        145676
#        160465
#        175604
#        189849
#        203351
#        218354
#        233358
#        247752
#        261772
#        276773
#        291404
#        305954
#        320807
#        335803
#
# Disc length: 4653 seconds
#
# Revision: 0
# Processed by: cddbd v1.5.2PL0 Copyright (c) Steve Scherf et al.
# Submitted via: ExactAudioCopyFreeDBPlugin 1.0
#
DISCID=6d122b18
DTITLE=Μάρκος Βαμβακάρης - Μάρκος Βαμβακάρης ο Μέγας
DYEAR=1900
DGENRE=Ρεμπέτικο
TTITLE0=Ώρες με θρέφει ο λουλάς
TTITLE1=Τα μάτια σου τ' αράπικα
TTITLE2=Ο συνάχης
TTITLE3=Ο Μάρκος ο Συριανός
TTITLE4=Μ΄ έκαψες τσαχπίνα
TTITLE5=Μάρκος Βαμβακάρης - Απόστολος Χατζηχρήστος - Τα δυό σου χέρια 
TTITLE5=πήρανε (βεργούλες)
TTITLE6=Μάρκος Βαμβακάρης - Μ. Μάτσα - Ο κουμπάρος ο ψαράς
TTITLE7=Όλοι οι ρεμπέτες του ντουνιά
TTITLE8=Μάρκος Βαμβακάρης - Έλλη Πετρίδου - Στο Φάληρο που πλένεσαι
TTITLE9=Νόστιμο τρελλό μικρό μου
TTITLE10=Μπουζούκι γλέντι του ντουνιά
TTITLE11=Χτες το βράδυ στο σκοτάδι
TTITLE12=Ταξίμι ζειμπέκικο
TTITLE13=Μάρκος Βαμβακάρης - Μαρίτσα Πανδρά - Πλημμύρα
TTITLE14=Ο Μάρκος υπουργός
TTITLE15=Καραντουζένι
TTITLE16=Μάρκος Βαμβακάρης - Έλλη Πετρίδου - Έχει όμορφες αφράτες
TTITLE17=Μάρκος Βαμβακάρης - Σοφία Καρίβαλη - Ο Μάρκος πολυτεχνίτης
TTITLE18=Αλανιάρης
TTITLE19=Μάρκος Βαμβακάρης - Μαρίτσα Πανδρά - Σαν είσαι μάγκας και ντα
TTITLE19=ής
TTITLE20=Κορόιδο
TTITLE21=Ο αραμπατζής
TTITLE22=Όσοι έχουνε πολλά λεφτά
TTITLE23=Μάρκος Βαμβακάρης - Έλλη Πετρίδου - Θάρθω να σε ξυπνήσω
EXTD=
EXTT0=
EXTT1=
EXTT2=
EXTT3=
EXTT4=
EXTT5=
EXTT6=
EXTT7=
EXTT8=
EXTT9=
EXTT10=
EXTT11=
EXTT12=
EXTT13=
EXTT14=
EXTT15=
EXTT16=
EXTT17=
EXTT18=
EXTT19=
EXTT20=
EXTT21=
EXTT22=
EXTT23=
PLAYORDER=
